# xmcd
#
# Track frame offsets:
# 150
# 15645
# 33309
# 50623
# 63604
# 76576
# 95990
# 114672
# 136344
# 157303
# 174827
#
# Disc length: 2562 seconds
#
#
# Revision: 0
# Processed by: cddbd v1.5.1PL0 Copyright (c) Steve Scherf et al.
# Submitted via: FreeRIP 2.60 
#
DISCID=900a000b
DTITLE=Trent Willmon - Trent Willmon
DYEAR=2004
DGENRE=Country
TTITLE0=Beer Man
TTITLE1=Dixie Rose Deluxe's Honky Tonk, Feed Store, Gun Shop, Used Car, Beer, Bait, BBQ, Barber Shop, Laundromat
TTITLE2=Home Sweet Holiday Inn
TTITLE3=She Don't Love Me
TTITLE4=The Good Life
TTITLE5=Population 81
TTITLE6=Medina Daydreaming
TTITLE7=The Wishing Well
TTITLE8=All Day Long
TTITLE9=Every Now And Then
TTITLE10=Here
EXTD=
EXTT0=
EXTT1=
EXTT2=
EXTT3=
EXTT4=
EXTT5=
EXTT6=
EXTT7=
EXTT8=
EXTT9=
EXTT10=
PLAYORDER=
